<svg xmlns="http://www.w3.org/2000/svg" viewBox="0 0 400 130"><defs><style>.cls-1{fill:#fff;opacity:0;}.cls-2,.cls-3{fill:none;}.cls-2,.cls-3,.cls-4,.cls-5,.cls-6,.cls-7{stroke:#000;stroke-linecap:round;stroke-linejoin:round;}.cls-2,.cls-4,.cls-5,.cls-6,.cls-7{stroke-width:2px;}.cls-3{stroke-width:3px;}.cls-4{fill:#ffe661;}.cls-5{fill:#ffa03d;}.cls-6{fill:#cfb9b1;}</style></defs><g id="LOGO-X"><rect class="cls-1" x="1" width="400" height="130"/><line class="cls-2" x1="160.19" y1="38.5" x2="160.19" y2="98.5"/><rect class="cls-1" x="177.79" y="46.68" width="44" height="43.63"/><line class="cls-3" x1="211.72" y1="48.29" x2="179.38" y2="57.05"/><line class="cls-3" x1="211.72" y1="58.84" x2="179.38" y2="67.59"/><line class="cls-3" x1="211.72" y1="69.39" x2="179.38" y2="78.14"/><polyline class="cls-3" points="195.55 53.45 195.55 88.68 220.17 88.68 220.17 69.39"/><rect class="cls-1" x="284.07" y="46.68" width="44" height="43.63"/><polygon class="cls-3" points="323.38 88.68 292.71 88.68 292.75 48.22 323.43 48.22 323.38 88.68"/><line class="cls-3" x1="288.69" y1="67.11" x2="311.77" y2="67.11"/><rect class="cls-1" x="230.93" y="46.68" width="44" height="43.63"/><polyline class="cls-3" points="232.93 51.71 245.81 51.71 239.28 58.14 239.28 88.67 232.84 88.67"/><line class="cls-3" x1="232.84" y1="71.56" x2="245.73" y2="65.31"/><polyline class="cls-3" points="260.17 48.18 261.62 52.2 252.11 66.53 261.62 66.53"/><line class="cls-3" x1="249.64" y1="51.96" x2="272.82" y2="51.96"/><polyline class="cls-3" points="269.62 59.09 253.28 77.43 246.82 77.43"/><polyline class="cls-3" points="273.44 66.29 255.9 88.68 246.82 88.68"/><line class="cls-3" x1="273.44" y1="88.66" x2="264.06" y2="80.31"/><rect class="cls-1" x="337.22" y="46.68" width="44" height="43.63"/><line class="cls-3" x1="341.76" y1="58.02" x2="353.74" y2="58.02"/><line class="cls-3" x1="338.81" y1="51.96" x2="356.69" y2="51.96"/><line class="cls-3" x1="341.76" y1="63.09" x2="353.74" y2="63.09"/><rect class="cls-3" x="340.6" y="69.44" width="14.7" height="19.23"/><polyline class="cls-3" points="361.06 49.03 377.96 49.03 377.98 66.42 361.9 66.42 362.11 88.68 379.73 88.68 379.73 78.83"/><line class="cls-3" x1="346.3" y1="48.18" x2="347.48" y2="51.45"/><rect class="cls-1" x="20.78" y="31.5" width="128" height="64"/><path class="cls-4" d="M94.48,94.48H25.94c-8.22-9.62-3.67-36.78,8.87-62l5.36,17.39c13.06-3.69,22.91-3.73,35.21-.79l6.79-15.6Z"/><rect x="42.69" y="61.09" width="2.77" height="8.99" rx="1.38"/><rect x="60.28" y="61.09" width="2.77" height="8.99" rx="1.38"/><path d="M53,75.29l1.73-3A.85.85,0,0,0,54,71H50.56a.85.85,0,0,0-.74,1.27l1.73,3A.85.85,0,0,0,53,75.29Z"/><line class="cls-5" x1="52.29" y1="74.64" x2="52.29" y2="83.01"/><path class="cls-2" d="M37.82,70.42c0,16.83,28.93,16.83,28.93,0"/><path class="cls-6" d="M147.78,60.63H128.62a2.63,2.63,0,0,1-1.87-.83c-4.61-4.84-4.76-13-7.3-26.79-2,4.62-11.62,26.47-37.23.49l.15,61h45.4V84.56l20-7.8Z"/><rect x="103.78" y="59.02" width="2.79" height="8.94" rx="1.4" transform="translate(-11.78 25.89) rotate(-13.29)"/><path d="M110.8,59.23a1.41,1.41,0,0,1,1-1.68h0a1.41,1.41,0,0,1,1.68,1l1.41,6a1.4,1.4,0,0,1-1,1.68h0a1.4,1.4,0,0,1-1.68-1"/><path class="cls-6" d="M103.77,79.06c20.79,15.29,44,.23,44,.23V71.85"/><path class="cls-2" d="M103.2,73.31s3.64,12-7.5,11"/><polygon class="cls-7" points="138.77 60.66 147.78 71.32 147.78 60.66 138.77 60.66"/></g></svg>